<svg width="105" height="31" viewBox="0 0 105 31" fill="none" xmlns="http://www.w3.org/2000/svg">
<path fill-rule="evenodd" clip-rule="evenodd" d="M13.2974 24.5651C14.4794 24.5651 15.4644 24.3379 16.2852 23.8512C17.106 23.3644 17.7627 22.7154 18.2552 21.9041C18.7805 21.0928 19.1088 20.1842 19.3386 19.1458C19.5356 18.0749 19.6341 17.0365 19.6341 15.9332V6.48994L26.5619 10.3191V15.9332C26.5619 18.01 26.2992 19.9246 25.7739 21.7094C25.2814 23.4618 24.4606 25.0194 23.3771 26.3499C22.2936 27.6804 20.9146 28.7513 19.2402 29.4976C17.5657 30.2765 15.5957 30.6659 13.2974 30.6659C10.9006 30.6659 8.86492 30.244 7.1576 29.4327C5.48311 28.6539 4.10413 27.5506 3.05347 26.2201C2.00281 24.8572 1.21482 23.2995 0.722326 21.5147C0.229831 19.7624 0 17.8802 0 15.9332V9.15092L6.92777 12.9801V15.9332C6.92777 17.0689 7.02627 18.1723 7.2561 19.1782C7.48593 20.2167 7.84709 21.1253 8.33959 21.9366C8.86492 22.7478 9.52158 23.3969 10.3096 23.8512C11.0976 24.3379 12.1154 24.5651 13.2974 24.5651ZM0 4.12103V0.811035H6.92777V7.98268L0 4.12103ZM19.6341 1.46005V0.811035H26.5619V5.28926L19.6341 1.46005Z" fill="white"/>
<path d="M45.9941 29.4003C45.0419 29.7897 43.9913 30.1791 42.7765 30.5036C41.5616 30.8281 40.3796 30.9904 39.1648 30.9904C38.3112 30.9904 37.5232 30.893 36.768 30.6983C36.0129 30.4711 35.3562 30.1466 34.798 29.6923C34.207 29.2056 33.7802 28.6214 33.4519 27.8751C33.1235 27.0962 32.9594 26.1876 32.9594 25.1492V13.6616H30.1357V8.59924H32.9594V1.58984H39.7558V8.59924H44.2868V13.6616H39.7558V22.8452C39.7558 23.5591 39.92 24.0783 40.314 24.4028C40.6751 24.7273 41.1348 24.8896 41.693 24.8896C42.2183 24.8896 42.7436 24.7922 43.269 24.63C43.7943 24.4677 44.2539 24.273 44.6479 24.0783L45.9941 29.4003Z" fill="white"/>
<path d="M48.6284 30.5687V8.59949H55.392V30.5687H48.6284ZM48.6284 6.06832V0H55.392V6.06832H48.6284Z" fill="white"/>
<path d="M65.835 30.5689L57.9551 8.59961H64.9485L69.8078 25.2145L74.7328 8.59961H81.0695L73.2224 30.5689H65.835Z" fill="white"/>
<path d="M89.9536 30.9907C88.8372 30.9907 87.8194 30.8285 86.8672 30.4715C85.9479 30.1145 85.1271 29.6278 84.4376 29.0112C83.7481 28.3946 83.2228 27.6483 82.8288 26.8045C82.4348 25.9284 82.2378 25.0197 82.2378 24.0138C82.2378 22.9104 82.4676 21.9369 82.9273 21.0283C83.3869 20.1521 84.0436 19.3733 84.8973 18.7243C85.7509 18.0753 86.7687 17.5885 87.9179 17.2315C89.0671 16.8421 90.3475 16.6799 91.7594 16.6799C92.7115 16.6799 93.598 16.7448 94.4845 16.907C95.371 17.0693 96.1262 17.2964 96.7828 17.5885V16.5825C96.7828 14.0513 95.3053 12.7858 92.3175 12.7858C91.1027 12.7858 89.9536 12.9805 88.8372 13.3699C87.7537 13.7917 86.5718 14.4083 85.3569 15.2196L83.3869 11.0334C84.8644 10.0599 86.3748 9.34597 87.9507 8.89165C89.5267 8.40489 91.234 8.17773 93.007 8.17773C96.356 8.17773 98.9498 8.95656 100.788 10.5142C102.627 12.0718 103.546 14.3759 103.546 17.3938V23.0402C103.546 23.7217 103.678 24.176 103.875 24.4356C104.072 24.6952 104.466 24.8575 104.991 24.9224V30.5689C104.4 30.7311 103.875 30.8285 103.382 30.8609C102.923 30.8934 102.463 30.9258 102.069 30.9258C100.788 30.9258 99.8363 30.6662 99.1796 30.1794C98.5558 29.6927 98.129 29.0112 97.9648 28.1026L97.8335 27.0966C96.8485 28.3622 95.6665 29.3357 94.2875 29.9847C92.9414 30.6662 91.4639 30.9907 89.9536 30.9907ZM91.9564 26.188C92.6787 26.188 93.401 26.0582 94.0905 25.7986C94.78 25.5714 95.3382 25.2145 95.7978 24.7926C96.4545 24.3058 96.7828 23.7542 96.7828 23.2025V21.1256C96.1918 20.8985 95.5352 20.7038 94.8457 20.6064C94.1562 20.4766 93.4995 20.4117 92.9085 20.4117C91.6609 20.4117 90.643 20.6713 89.8551 21.2554C89.0342 21.8071 88.6402 22.521 88.6402 23.4297C88.6402 24.2409 88.9357 24.8899 89.5596 25.4092C90.1834 25.9284 90.9714 26.188 91.9564 26.188Z" fill="white"/>
</svg>
